<?xml version="1.0" encoding="UTF-8"?>
<svg id="Layer_2" data-name="Layer 2" xmlns="http://www.w3.org/2000/svg" viewBox="0 0 38.12 20.53">
  <defs>
    <style>
      .cls-1 {
        fill: #ed2024;
      }
    </style>
  </defs>
  <g id="Layer_1-2" data-name="Layer 1">
    <path id="app-bar-logo_path" data-name="app-bar-logo  path" class="cls-1" d="M.94,17.71c.62,1.02,1.43,1.73,2.41,2.16,1,.43,2.07.65,3.24.65,1.12-.03,2.29-.28,3.49-.79,1.21-.48,2.35-1.19,3.56-2.02.62,1.02,1.4,1.73,2.4,2.16,1,.43,2.09.65,3.24.65,1.11-.03,2.29-.28,3.51-.79,1.2-.48,2.34-1.19,3.56-2.02.6,1.02,1.39,1.73,2.41,2.16.98.43,2.06.65,3.23.65,1.09-.03,2.28-.28,3.5-.79.88-.36,1.74-.84,2.62-1.4v-4.16c-.66.53-1.39.98-2.18,1.38-.82.4-1.68.61-2.6.62-1.21-.02-1.99-.41-2.39-1.17-.39-.76-.55-1.71-.53-2.86V0h-5.01v13.59c0,.2,0,.39.01.59-.65.53-1.39.98-2.19,1.38-.83.4-1.68.61-2.58.62-1.22-.02-2.02-.41-2.41-1.17-.38-.76-.56-1.71-.51-2.86V0h-5.03v13.59c0,.2.03.39.03.59-.65.53-1.39.98-2.2,1.38-.81.4-1.67.61-2.59.62-1.2-.02-1.99-.41-2.39-1.17-.38-.76-.56-1.71-.51-2.86V0H0v13.59c.02,1.74.33,3.13.94,4.13"/>
  </g>
</svg>